<svg width="800px" height="800px" viewBox="0 0 47.5 47.5" version="1.1" xmlns="http://www.w3.org/2000/svg">
<defs id="defs6">
<clipPath clipPathUnits="userSpaceOnUse" id="clipPath16">
<path d="M 0,38 38,38 38,0 0,0 0,38 Z" id="path18"/>
</clipPath>
</defs>
<g id="g10" transform="matrix(1.25,0,0,-1.25,0,47.5)">
<g id="g12">
<g clip-path="url(#clipPath16)" id="g14">
<g id="g20" transform="translate(23.2354,1.3379)">
</g>
<g id="g24" transform="translate(19.5,5) scale(1.5)">
<path d="m 0,0 c -3.708,-0.041 -8.167,2.875 -7.792,8.37 0.133,1.959 0.902,3.779 2.341,5.116 2.543,2.366 6.538,2.22 8.903,-0.324 0.986,-1.061 1.5,-2.443 1.447,-3.891 C 4.848,7.824 4.234,6.483 3.173,5.497 2.255,4.644 1.069,4.195 -0.192,4.244 -1.445,4.29 -2.605,4.821 -3.458,5.739 c -0.785,0.844 -1.059,2.045 -0.733,3.214 0.331,1.189 1.218,2.095 2.375,2.425 0.532,0.152 1.123,0.236 1.274,-0.294 0.152,-0.531 -0.38,-0.757 -1.083,-1.25 C -2.458,9.25 -2.917,8.167 -1.993,7.101 -1.522,6.557 -0.838,6.27 -0.12,6.243 0.597,6.22 1.285,6.472 1.812,6.962 2.48,7.584 2.868,8.431 2.901,9.345 2.935,10.258 2.609,11.13 1.987,11.8 0.373,13.537 -2.353,13.637 -4.09,12.021 -5.136,11.048 -5.742,9.726 -5.793,8.298 -5.846,6.869 -5.338,5.507 -4.365,4.46 -3.163,3.167 -1.53,2.42 0.234,2.355 1.998,2.285 3.682,2.917 4.975,4.12 6.562,5.596 7.48,7.603 7.56,9.769 7.639,11.935 6.869,14.003 5.393,15.59 1.668,19.598 -3.208,20.542 -8.25,17.5 c -0.763,-0.46 -1.401,-1.136 -1.833,-0.791 -0.209,0.166 -0.315,0.481 0.09,0.857 4.815,4.478 12.376,4.201 16.85,-0.614 C 8.697,14.974 9.776,12.39 9.558,9.695 8.875,1.292 3,-0.166 0,0" id="path26" style="fill:#ffffff;fill-opacity:1;fill-rule:nonzero;stroke:none"/>
</g>
</g>
</g>
</g>
</svg>