<svg height="800px" width="800px" version="1.1" xmlns="http://www.w3.org/2000/svg" viewBox="0 0 512 512">
<path style="fill:#7f4c01;" d="M401.202,319.466H378.86c14.471-11.163,23.802-28.664,23.802-48.353l0,0
	c0-33.715-27.332-61.046-61.046-61.046h-15.731c-38.766-12.216-66.878-48.449-66.878-91.25c0-17.65,4.785-34.181,13.122-48.374
	c-52.081,0.867-94.035,43.35-94.035,95.638c0,15.86,3.864,30.816,10.696,43.985h-18.405c-33.715,0-61.046,27.332-61.046,61.046l0,0
	c0,19.69,9.331,37.191,23.802,48.353H110.8c-33.715,0-61.046,27.332-61.046,61.046l0,0c0,33.715,27.332,61.046,61.046,61.046
	h290.403c33.715,0,61.046-27.332,61.046-61.046l0,0C462.248,346.798,434.916,319.466,401.202,319.466z"/>
</svg>